<?xml version="1.0"?>
<svg xmlns="http://www.w3.org/2000/svg" height="512px" viewBox="0 -87 512 512" width="512px"><path d="m184.9375 217.578125c-.648438 0-1.308594-.070313-1.949219-.199219-.640625-.132812-1.269531-.320312-1.867187-.570312-.609375-.25-1.191406-.5625-1.730469-.921875-.550781-.371094-1.0625-.78125-1.519531-1.25-.460938-.460938-.882813-.96875-1.242188-1.519531-.359375-.539063-.667968-1.121094-.917968-1.71875-.25-.601563-.441407-1.230469-.570313-1.871094-.128906-.648438-.199219-1.300782-.199219-1.960938 0-2.628906 1.070313-5.199218 2.929688-7.070312.460937-.460938.96875-.878906 1.519531-1.238282.539063-.359374 1.121094-.671874 1.730469-.921874.601562-.25 1.230468-.4375 1.871094-.570313 1.289062-.257813 2.609374-.257813 3.90625 0 .632812.132813 1.261718.320313 1.871093.570313.601563.25 1.179688.5625 1.722657.921874.546874.359376 1.058593.777344 1.519531 1.238282 1.859375 1.859375 2.929687 4.441406 2.929687 7.070312 0 .660156-.058594 1.3125-.1875 1.960938-.132812.640625-.320312 1.269531-.570312 1.871094-.25.597656-.5625 1.179687-.921875 1.71875-.371094.550781-.789063 1.058593-1.25 1.519531-.460938.46875-.96875.878906-1.519531 1.25-.539063.359375-1.121094.671875-1.722657.921875-.609375.25-1.238281.4375-1.867187.570312-.652344.128906-1.3125.199219-1.964844.199219zm0 0" fill="#FFFFFF"/><path d="m491.800781 130.046875-111.433593-126.652344c-1.894532-2.15625-4.632813-3.394531-7.507813-3.394531h-94.859375c-5.523438 0-10 4.476562-10 10v39.335938c0 5.523437 4.476562 10 10 10h51.738281c.125.183593.253907.359374.390625.535156l54.726563 69.902344h-260.582031l54.722656-69.902344c.140625-.175782.269531-.351563.394531-.535156h51.738281c5.523438 0 10-4.476563 10-10v-39.335938c0-5.523438-4.476562-10-10-10h-94.863281c-2.871094 0-5.609375 1.238281-7.507813 3.394531l-112.175781 127.5c-9.605469 3.0625-16.582031 12.070313-16.582031 22.679688v161.167969c0 13.117187 10.675781 23.792968 23.796875 23.792968h172.40625c13.792969 0 26.757813-5.375 36.503906-15.125l23.289063-23.300781 23.289062 23.292969c9.742188 9.757812 22.707032 15.132812 36.515625 15.132812h172.40625c13.117188 0 23.792969-10.675781 23.792969-23.792968v-161.167969c0-11.902344-8.78125-21.796875-20.199219-23.527344zm-145.570312-82.054687c-3.425781-5.359376-9.398438-8.65625-15.777344-8.65625h-42.453125v-19.335938h80.339844l96.582031 109.777344h-54.667969zm-205.441407-27.992188h80.339844v19.335938h-42.4375c-6.394531 0-12.367187 3.292968-15.792968 8.65625l-64.023438 81.78125h-54.671875zm351.210938 294.742188c0 2.089843-1.699219 3.792968-3.792969 3.792968h-172.40625c-8.335937 0-16.484375-3.375-22.363281-9.265625l-30.371094-30.375c-1.875-1.875-4.417968-2.929687-7.070312-2.929687s-5.195313 1.054687-7.070313 2.929687l-30.363281 30.375c-5.96875 5.972657-13.910156 9.261719-22.359375 9.261719h-172.40625c-2.09375 0-3.796875-1.699219-3.796875-3.789062v-161.167969c0-2.09375 1.703125-3.796875 3.796875-3.796875h464.421875c2.085938 0 3.78125 1.703125 3.78125 3.796875zm0 0" fill="#FFFFFF"/><path d="m211.753906 170.550781h-157.488281c-11.332031 0-20.550781 9.226563-20.550781 20.566407v80.035156c0 11.335937 9.21875 20.558594 20.550781 20.558594h157.488281c11.332032 0 20.550782-9.222657 20.550782-20.558594v-80.035156c0-11.34375-9.21875-20.566407-20.550782-20.566407zm.550782 100.601563c0 .300781-.25.558594-.550782.558594h-157.488281c-.304687 0-.550781-.25-.550781-.558594v-53.582032h88.574218c5.523438 0 10-4.476562 10-10 0-5.519531-4.476562-10-10-10h-88.574218v-6.453124c0-.316407.238281-.566407.550781-.566407h157.488281c.304688 0 .550782.253907.550782.566407zm0 0" fill="#FFFFFF"/><path d="m457.746094 170.550781h-157.484375c-11.335938 0-20.554688 9.226563-20.554688 20.566407v80.035156c0 11.335937 9.21875 20.558594 20.554688 20.558594h157.484375c11.332031 0 20.554687-9.222657 20.554687-20.558594v-80.035156c0-11.34375-9.222656-20.566407-20.554687-20.566407zm.554687 100.601563c0 .300781-.253906.558594-.554687.558594h-157.484375c-.308594 0-.554688-.25-.554688-.558594v-53.582032h89.601563c5.523437 0 10-4.476562 10-10 0-5.519531-4.476563-10-10-10h-89.601563v-6.453124c0-.316407.242188-.566407.554688-.566407h157.484375c.304687 0 .554687.253907.554687.566407zm0 0" fill="#FFFFFF"/><path d="m431.960938 217.578125c-.652344 0-1.3125-.070313-1.949219-.199219-.640625-.132812-1.273438-.320312-1.871094-.570312-.609375-.25-1.191406-.5625-1.730469-.921875-.550781-.371094-1.058594-.78125-1.519531-1.25-1.859375-1.851563-2.929687-4.429688-2.929687-7.070313 0-.648437.070312-1.300781.199218-1.949218.121094-.640626.320313-1.269532.570313-1.871094.25-.597656.558593-1.179688.917969-1.730469.359374-.539063.78125-1.058594 1.242187-1.519531.457031-.460938.96875-.878906 1.519531-1.238282.539063-.359374 1.121094-.671874 1.730469-.921874.597656-.25 1.226563-.4375 1.867187-.570313 1.292969-.257813 2.609376-.257813 3.902344 0 .640625.132813 1.269532.320313 1.878906.570313.601563.25 1.179688.5625 1.71875.921874.550782.359376 1.0625.777344 1.523438 1.238282.457031.460937.878906.980468 1.238281 1.519531.371094.550781.667969 1.132813.917969 1.730469.25.601562.453125 1.230468.582031 1.871094.128907.648437.191407 1.300781.191407 1.949218 0 .660156-.0625 1.3125-.191407 1.960938-.128906.640625-.332031 1.257812-.582031 1.871094-.25.597656-.546875 1.179687-.917969 1.71875-.359375.550781-.78125 1.058593-1.238281 1.519531-.460938.46875-.972656.878906-1.523438 1.25-.539062.359375-1.117187.671875-1.71875.921875-.609374.25-1.238281.4375-1.878906.570312-.640625.128906-1.300781.199219-1.949218.199219zm0 0" fill="#FFFFFF"/></svg>
